<?xml version="1.0" encoding="UTF-8"?>
<svg xmlns="http://www.w3.org/2000/svg" viewBox="0 0 256 256">
  <defs>
    <linearGradient id="grad" x1="0%" y1="0%" x2="100%" y2="100%">
      <stop offset="0%" stop-color="#4A90E2" />
      <stop offset="100%" stop-color="#0F4C81" />
    </linearGradient>
    <filter id="shadow" x="-20%" y="-20%" width="140%" height="140%">
      <feDropShadow dx="0" dy="8" stdDeviation="8" flood-color="#000" flood-opacity="0.25" />
    </filter>
  </defs>
  <rect x="16" y="16" width="224" height="224" rx="48" fill="url(#grad)" filter="url(#shadow)" />
  <g fill="#FFFFFF">
    <circle cx="92" cy="96" r="24" />
    <rect x="92" y="120" width="72" height="20" rx="10" />
    <path d="M132 76h60c6.6 0 12 5.4 12 12v80c0 6.6-5.4 12-12 12h-60c-6.6 0-12-5.4-12-12V88c0-6.6 5.4-12 12-12zm-44 80h24c6.6 0 12 5.4 12 12v12c0 6.6-5.4 12-12 12H88c-6.6 0-12-5.4-12-12v-12c0-6.6 5.4-12 12-12z" />
  </g>
</svg>
